<?xml version="1.0" encoding="UTF-8"?>
<svg xmlns="http://www.w3.org/2000/svg" viewBox="0 0 240 240" width="240" height="240" role="img" aria-label="Архив 1941–1945">
  <defs>
    <filter id="ink-bleed" x="-10%" y="-10%" width="120%" height="120%">
      <feTurbulence type="fractalNoise" baseFrequency="1.4" numOctaves="2" seed="3"/>
      <feDisplacementMap in="SourceGraphic" scale="2.2"/>
    </filter>
    <path id="circ" d="M 120,120 m -88,0 a 88,88 0 1,1 176,0 a 88,88 0 1,1 -176,0"/>
    <path id="circ-inner" d="M 120,120 m -64,0 a 64,64 0 1,1 128,0 a 64,64 0 1,1 -128,0"/>
  </defs>
  <g filter="url(#ink-bleed)" fill="none" stroke="#5a1a1f" stroke-width="2.4" opacity="0.92">
    <circle cx="120" cy="120" r="100"/>
    <circle cx="120" cy="120" r="92"/>
    <circle cx="120" cy="120" r="64"/>
  </g>
  <g filter="url(#ink-bleed)" fill="#5a1a1f" opacity="0.92">
    <text font-family="Cormorant Garamond, Georgia, serif" font-size="14" font-weight="500" letter-spacing="3.5">
      <textPath href="#circ" startOffset="6%">АРХИВ СЕМЬИ · 1941—1945 · ХРАНИТЬ ДОЛГО · ПО РАССКАЗАМ ·</textPath>
    </text>
    <text x="120" y="108" text-anchor="middle" font-family="Cormorant Garamond, Georgia, serif" font-size="34" font-weight="500" font-style="italic">
      строка
    </text>
    <text x="120" y="138" text-anchor="middle" font-family="Cormorant Garamond, Georgia, serif" font-size="18" letter-spacing="2.8">
      № IX
    </text>
    <line x1="80" y1="148" x2="160" y2="148" stroke="#5a1a1f" stroke-width="1.4"/>
    <text x="120" y="168" text-anchor="middle" font-family="JetBrains Mono, monospace" font-size="9" letter-spacing="2.4">
      MMXXVI
    </text>
  </g>
</svg>
